<?xml version="1.0" encoding="UTF-8"?>
<svg width="64" height="64" viewBox="0 0 64 64" fill="none" xmlns="http://www.w3.org/2000/svg">
    <path d="M32 4C16.536 4 4 16.536 4 32C4 47.464 16.536 60 32 60C47.464 60 60 47.464 60 32C60 16.536 47.464 4 32 4ZM32 56C18.745 56 8 45.255 8 32C8 18.745 18.745 8 32 8C45.255 8 56 18.745 56 32C56 45.255 45.255 56 32 56Z" fill="#1A1A68"/>
    <path d="M32 16C27.582 16 24 19.582 24 24C24 28.418 27.582 32 32 32C36.418 32 40 28.418 40 24C40 19.582 36.418 16 32 16ZM32 28C29.791 28 28 26.209 28 24C28 21.791 29.791 20 32 20C34.209 20 36 21.791 36 24C36 26.209 34.209 28 32 28Z" fill="#F0C15C"/>
    <path d="M32 36C25.373 36 20 41.373 20 48H44C44 41.373 38.627 36 32 36ZM24 44C25.657 42.343 28.343 42.343 30 44C31.657 42.343 34.343 42.343 36 44C37.657 42.343 40.343 42.343 42 44H24Z" fill="#F0C15C"/>
</svg> 